<svg id="Слой_1" data-name="Слой 1" xmlns="http://www.w3.org/2000/svg" viewBox="0 0 971.61 1008.42"><defs><style>.cls-1{fill:#fc5555;}</style></defs><path class="cls-1" d="M985.79,8q-29.64,39.22-59.3,78.44L606.08,509.87c-.54.71-1.05,1.45-1.76,2.43l381.38,504H777.1L500,650.08l-277.2,366.33H14.19q190.91-252.3,381.45-504.1c-.64-.89-1.18-1.68-1.76-2.45L15.31,9.57c-.39-.51-.75-1.05-1.13-1.58h209a14.89,14.89,0,0,0,1.14,2.08q137,181,274,362.05c.52.69,1.09,1.34,1.78,2.18.74-1,1.29-1.66,1.83-2.37Q638.69,191.11,775.51,10.26A22,22,0,0,0,776.82,8Z" transform="translate(-14.18 -7.99)"/></svg>